<svg xmlns="http://www.w3.org/2000/svg" width="128" height="128" viewBox="0 0 128 128">
    <path fill="#000" fill-rule="nonzero" d="M122.125 51.43l-12.678-12.262a52.467 52.467 0 0 0-20.372-20.305L76.8 6.144c-7.006-6.993-18.351-6.993-25.357 0L39.18 18.621A52.48 52.48 0 0 0 18.15 39.693L5.645 51.928c-6.993 7.006-6.993 18.351 0 25.357L18.46 89.411a52.467 52.467 0 0 0 20.372 20.373l12.126 12.786c7.007 6.993 18.352 6.993 25.358 0l12.194-12.544a52.48 52.48 0 0 0 21.113-21.005L122.125 76.8c7.003-7.008 7.003-18.363 0-25.37zM54.811 9.431c5.149-5.138 13.485-5.138 18.634 0l4.702 4.85a52.547 52.547 0 0 0-28.011-.094l4.675-4.756zM42.375 21.733l.27-.135a47.59 47.59 0 0 1 42.563 0l.606.31c1.177.665 2.308 1.325 3.395 1.98L77.635 35.464a2.83 2.83 0 0 0-.525.714 31.353 31.353 0 0 0-25.91-.202 2.83 2.83 0 0 0-.404-.512l-11.79-11.79a47.175 47.175 0 0 1 3.369-1.9v-.04zM8.987 73.917A13.19 13.19 0 0 1 9 55.242l4.837-4.837a52.547 52.547 0 0 0 .19 28.295l-5.04-4.783zM21.53 86.043a47.603 47.603 0 0 1-.243-43.035l.081-.08a48 48 0 0 1 1.765-3.194l11.709 11.709c.143.142.301.268.472.377a31.367 31.367 0 0 0 .269 26.327c-.29.139-.554.325-.781.553L23.687 89.816a93.761 93.761 0 0 1-2.13-3.584l-.026-.19zm51.429 33.2c-5.149 5.137-13.485 5.137-18.634 0l-4.918-5.08a52.547 52.547 0 0 0 28.443.175l-4.891 4.904zm-9.027-7.304a47.373 47.373 0 0 1-21.76-5.254h-.081a47.73 47.73 0 0 1-3.167-1.792L49.947 93.87c.229-.231.415-.5.552-.795 4.21 2 8.814 3.031 13.474 3.018 4.667.051 9.282-.992 13.474-3.045l-.122.068 11.723 11.722a47.373 47.373 0 0 1-25.115 7.114v-.014zm0-20.21a27.096 27.096 0 0 1-19.389-46.013l.445-.444a27.11 27.11 0 1 1 18.944 46.497v-.04zm42.576-6.077l-.067.148a45.918 45.918 0 0 1-2.21 3.88l-11.87-11.843a31.77 31.77 0 0 0 2.964-13.204 31.205 31.205 0 0 0-2.694-12.625 2.83 2.83 0 0 0 .93-.62l11.371-11.371c.467.781.916 1.576 1.347 2.385l.297.566a47.603 47.603 0 0 1-.068 42.684zm12.262-12.26L114 78.146a52.547 52.547 0 0 0-.068-28.092l4.864 4.702a13.19 13.19 0 0 1-.026 18.675v-.04z"/>
</svg>
