<svg xmlns="http://www.w3.org/2000/svg" width="122" height="127" viewBox="0 0 122 127">
    <g fill="#000" fill-rule="evenodd">
        <path d="M57.235 53.711h4.519v4.518h-4.519z"/>
        <path fill-rule="nonzero" stroke="#000" stroke-width=".75" d="M93.22 124.18L66.548 69.794v-4.872l4.741 4.743a2.067 2.067 0 0 0 2.924 0l.606-.606 6.808 6.812a2.067 2.067 0 0 0 2.924 0l2.673-2.675 2.674 2.675a2.067 2.067 0 0 0 2.923 0l2.068-2.068-2.924-2.925-.605.606-1.212-1.213 2.673-2.674a2.07 2.07 0 0 0 0-2.925l-6.808-6.812.606-.606a2.07 2.07 0 0 0 0-2.925l-8.877-8.881 1.212-1.212 4.74 4.743 2.925-2.925L76.28 35.711l-2.924 2.925 2.673 2.675-1.211 1.212-9.364-9.369 1.575-1.557a2.07 2.07 0 0 0 .017-2.925L40.329 1.618a2.067 2.067 0 0 0-2.923-.025l-1.892 1.862A10.82 10.82 0 0 0 21.71 4.631a10.833 10.833 0 0 0-1.342 13.795l-1.681 1.655a2.07 2.07 0 0 0-.017 2.925l26.716 27.076a2.067 2.067 0 0 0 2.923.018l1.722-1.702 2.62 2.62a10.265 10.265 0 0 0-2.644 6.842v4.137c0 1.142.925 2.069 2.067 2.069h2.068v5.728L27.47 124.18l3.71 1.82 10.97-22.378L58.278 109v16.09h4.135v-16.092l16.127-5.378L89.5 126l3.721-1.82zM54.143 59.928V57.86a6.204 6.204 0 0 1 6.203-6.206 6.204 6.204 0 0 1 6.202 6.206v2.068H54.143zm34.293 6.206l-5.347 5.35-5.347-5.35 5.347-5.35 5.347 5.35zM22.626 12.35a6.68 6.68 0 0 1 3.255-5.748 6.673 6.673 0 0 1 6.602-.137l-9.073 8.97a6.637 6.637 0 0 1-.783-3.085zm.439 9.243L38.843 5.995l23.81 24.112-1.034 1.034a2.068 2.068 0 0 0-.666.443L48.548 43.996c-.046.06-.088.124-.126.19l-1.547 1.529-23.81-24.122zM62.512 36.06l19.721 19.73-.606.606-8.27 8.275-.606.606-2.328-2.33c.164-.29.254-.617.26-.951V57.86c-.006-5.71-4.63-10.337-10.337-10.343a10.21 10.21 0 0 0-4.353.995l-3.018-3.023 9.537-9.428zm-.099 28.005v4.137h-4.135v-4.137h4.135zM43.997 99.873L57.5 72.34h.779v32.295l-14.28-4.762zm18.416 4.762V72.34h.78l13.501 27.533-14.28 4.762z"/>
        <path d="M8.252 77.807l.014-2.25 2.25.013.027-4.506-2.25-.013.013-2.255-4.505-.025-.013 2.253-2.255-.014-.027 4.506 2.255.014-.014 2.252z"/>
        <path fill-rule="nonzero" d="M81.333 16.06A7.53 7.53 0 1 0 81.334 1a7.53 7.53 0 0 0 0 15.06zm0-10.757a3.227 3.227 0 1 1 0 6.455 3.227 3.227 0 0 1 0-6.455zM16.533 50.699h.034c3.317.01 6.015-2.678 6.026-6.005.01-3.327-2.67-6.033-5.988-6.043h-.038c-3.317-.01-6.014 2.68-6.024 6.007-.01 3.327 2.672 6.031 5.99 6.04zm.034-8.032h.014c1.106.004 1.999.906 1.995 2.015a2.005 2.005 0 0 1-2.01 2h-.011a2.005 2.005 0 0 1-1.996-2.013 2.005 2.005 0 0 1 2.008-2.002z"/>
        <path d="M115.858 40.157l1.623-1.624 1.624 1.624L122 37.262l-1.624-1.623L122 34.015l-2.895-2.895-1.624 1.624-1.623-1.624-2.895 2.895 1.624 1.624-1.624 1.623zM0 5.518h4.519v4.518H0zM30.867 65.274l.025-4.148 4.135.024-.024 4.148zM106.938 2.506h4.519v4.518h-4.519zM106.938 65.759h4.519v4.518h-4.519z"/>
    </g>
</svg>
